<svg xmlns="http://www.w3.org/2000/svg" version="1.1" viewBox="0.0 0.0 771.7 577.9" width="365.62475591922407" height="273.50445608801334">
  <defs>
    <style>
      .cls-1 {
        fill: #000;
        stroke-width: 0px;
      }
    </style>
  </defs>
  <path class="cls-1" d="M720.2,540.2c0-15.5,6.9-25,16.7-25s9.6,2.3,12.9,6.4v35.2c-3.9,5.4-8.6,8.2-13.8,8.2-9.3,0-15.8-9.3-15.8-24.7M728.6,577.9c8.6,0,16.5-4.9,21.1-13v11.4h21.9c-2.8-5.6-3.3-15.8-3.3-23.2v-81.9l-22.1,3.5c2.9,5.4,3.5,15.5,3.5,23.3v12.7c-4.4-5.6-10.8-8.7-17.6-8.7-17.2,0-31,15.6-31,38.3s11.9,37.5,27.5,37.5M651.3,576.3h25c-2.5-5.4-3.3-15.6-3.3-24v-21.6c4.3-7.7,9.7-12.3,17.1-12.3s6.8.6,9,1.4l-1.1-16.9c-1.3-.6-3.6-1-6-1-7.5,0-15,6.2-19,20.1v-19.1l-22.1,3.5c2.9,5.5,3.5,15.6,3.5,23.3v22.6c0,8.4-.7,18.7-3.1,24M608.5,565.3c-9.7,0-16.3-9.1-16.3-25.2s6.5-25.2,16-25.2,16.3,9.1,16.3,25.2-6.4,25.2-16,25.2M608.3,577.9c20.1,0,35.3-16.1,35.3-38.2s-15-37.6-35.3-37.6-35.3,15.9-35.3,38.1,15,37.8,35.3,37.8M533.4,576.3h25.1c-2.5-5.4-3.3-15.6-3.3-24v-36.8h16.1v-11.9h-16.3c-.1-3.5-.3-6.9-.3-10.4,0-6.9,2.9-10.3,8.6-10.3s6.4.9,9.4,2.5l-1.7-13.9c-3.3-1.2-7.6-1.9-11.5-1.9-14.4,0-23.2,9.6-23.2,25.6v8.4h-11.8l-2.6,11.9h14.4v36.8c0,8.4-.7,18.7-3.1,24M503.9,577.8c5.4,0,11.1-1.6,14.9-3.5l1-11.6c-2.2,1-5.4,2.3-8.5,2.3-5.3,0-8.3-2.9-8.3-8.8v-40.7h14.9l2.6-11.9h-17.5v-19.5l-18.5,4.1v15.5h-10.1l.6,11.9h9.6v42.7c0,12.6,6.8,19.5,19.4,19.5M423.1,576.3h25c-2.5-5.4-3.3-15.6-3.3-24v-21.6c4.3-7.7,9.7-12.3,17.1-12.3s6.8.6,9,1.4l-1.1-16.9c-1.2-.6-3.6-1-6-1-7.5,0-15,6.2-19,20.1v-19.1l-22.1,3.5c2.9,5.5,3.5,15.6,3.5,23.3v22.6c0,8.4-.7,18.7-3.1,24M368.3,556.8c0-4.8,2.8-8.5,9.4-9.8l14.6-3.2v12.6c-3.6,4.6-9.2,8.8-15,8.8s-9-3.3-9-8.4M370.2,577.8c9.3,0,17.4-6.2,22.1-14.2.1,4.5.7,9.8,1.7,12.7h20.3c-2.5-4.5-3.5-12.4-3.5-18.4v-28.7c0-17.1-9.6-27.2-28.5-27.2s-17.6,2.2-25.3,6.2l-1.9,14.5c9.6-5.8,16.1-7.8,23.1-7.8s14.2,4.3,14.2,14.2v4.5l-18.6,3.2c-16,2.8-23.3,10.1-23.3,21.6s8.1,19.4,19.9,19.4M258.1,576.3h27.1c-2.8-5.6-3.5-19-3.5-28.1v-16.5h38.3v16.5c0,9.1-.8,22.4-3.6,28.1h27.2c-2.8-5.6-3.6-19-3.6-28.1v-45.1c0-9.1.8-22.4,3.6-28.1h-27.2c2.8,5.6,3.6,19,3.6,28.1v14.3h-38.3v-14.3c0-9.1.7-22.4,3.5-28.1h-27.1c2.6,5.6,3.6,19,3.6,28.1v45.1c0,9.1-1,22.4-3.6,28.1M198.9,514.7c7.5,0,13.1,5.5,14.4,17.1h-28.6c1.4-10.6,6.4-17.1,14.2-17.1M202.8,577.8c8.3,0,17.5-2.6,23.1-6.7l1.7-13.6c-6.7,4.9-14.2,7.5-21.5,7.5-11.9,0-19.9-7.5-21.4-21.7h46.4c.6-25.6-12.5-41.2-32.2-41.2s-33.1,16.8-33.1,37.9,14.7,37.8,37.1,37.8M90.4,576.3h24.6c-2.2-5.1-2.9-15.5-2.9-23.4v-29.2c3.8-4.6,8.2-8,13.6-8s11.1,4.5,11.1,13v24.2c0,8-.7,18.4-2.9,23.4h24.7c-2.4-5.4-3.2-15.6-3.2-24v-26.2c0-15-8.5-24-21.3-24s-17.1,5.5-22.1,13.9v-44.7l-22.1,3.5c2.9,5.4,3.5,15.5,3.5,23.3v54.3c0,8.4-.7,18.7-3.1,24M29.5,576.3h27.6c-2.8-5.6-3.8-19-3.8-28.1v-59.2h4.3c9.6,0,18.8,1,27.6,5.6l-3.1-19.7H3.1L0,494.7c8.9-4.6,18.6-5.6,28.2-5.6h5.1v59.2c0,9.1-1,22.4-3.9,28.1"/>
  <path class="cls-1" d="M495,402.4l-1.8-10.5c-.9-10.2,1.5-19.7,6-26.3,10.8-16.1,23.9-25.6,23.9-60.7s-23.3-53.2-51.7-53.2-10.9-.3-18.5-3.7c0,0,0,0,0,.1,11.1,12.3,11.7,36.6,11.7,39.8h-.2c-7.5-23.3-22.8-40.4-47.9-52.3,1.2,11.4-2.3,26-3.2,29.6h-.1c0-.3,0-33.5-24.8-48.4l-6.9-4.2c-5.1-3-6.3-5.1-8.1-12.9l-8.7-38h-20.6c0,0,0,0,0-.1l24.8-10.9c5.1-2.1,9-4.8,9.9-9-1.2.9-3.3,2.1-6.9,2.1s-8.1-1.5-10.5-5.1h16.4c2.7,0,4.8-2.1,4.8-4.5v-6.3c0-1.5-1.2-2.7-2.7-2.7h-14.3c-1.2,0-2.2,1-2.2,2.2v.3c0,.6.4,1.4.9,1.8l1.7,1.2c.6.4.9,1.1.9,1.8,0,1.2-1,2.2-2.2,2.2h-8.1v-7.3c0-3.3,2.7-5.7,5.7-5.7h15.4s0-.1,0-.1c-2.7-1.5-7.4-3-7.4-3,3.6-2.4,6.3-7.2,7.2-14.4,0,0-10.1,1.8-10.2,1.8-2.4.6-5.6.9-7.7,3.7l-5.5-5.9c5.8-1.6,19.7-5.3,20.6-5.5,9.4-2.5,19.4-6.6,26.8-11.3,18.2-11.6,26.9-28.8,29.1-42.8l-5-5c-2,12.1-7.9,22.2-16.1,30.3.9-2.8,1.5-5.8,1.7-8.7.1-1.7.1-3.4,0-5.2,3.3-5.8,6.6-16,6.5-24.2l-5.4-5.1c.3,5-1.5,11.3-3.5,14.7C405.5,28.3,395.3,12.1,380.1,0l-4,4c5.4,5.6,14.6,15.6,18.3,23.1-12.8-3.9-26.4-5.3-36-5.4l-5.8,5.8c18.6.6,37.7,6.8,47.2,11.5,1.9,5.4,2.8,11.2,2.8,15.5,0,12.6-4,22.4-18,29.7,2.8-6.5,4.1-13.8,4.6-20.8l-5.2-5.3c-.1,6.1-5.2,23.7-12.6,30.5-1.4.3-9.6,2.2-12.7,2.8,7.1-13,12.8-31.1,13.8-44.9l-5.3-5.3c-.7,12-10.8,36.8-21.2,51.1-1.8,2.4-3.7,4.4-5.5,5.9,0,0,16.4,17.3,16.4,17.3h-8.8c-5.1,0-8.1.3-11.4,4.2l-1.8,2.1c-2.1,3-6,5.4-9.5,5.4-5.7,0-9.3-4.9-9.7-7.8h15.3l3-3.3v-.6c-5.9,0-6-6.3-12.9-6.3s-6,1.2-8.1,3.3v-6c2.7-2.1,7.8-3.9,15-3.9h8.7l-4.8-4.8s-12.2-3.1-13.3-3.4c.3-1.1,3.7-11.9,3.7-22.4,0-15.4-4.6-30.5-11.3-44.3l-4.8,4.8c2.6,7.3,6.7,20.5,6.7,35s-1.7,15.9-4.6,23.3c-11.9-8.9-26.2-28.4-27.8-56.9l-5.6,5.6c.4,22.2,10.5,41.2,15.5,47.4-6.9-1.8-26.4-6.9-33.9-8.8-3.9-3.3-11.3-13.8-13.8-26l-5,5c.7,5.9,3.4,13.3,5.6,17.6-2.4-.6-4.8-1.3-7.2-2-5.4-5.2-10.1-11-13.7-17.5h0c5.2-21.5,28.9-36.9,43.4-39.9l-4.8-4.8c-17.5,4.6-35.1,16.2-43.9,32.9-2.4-7.3-3.7-15-4.3-22.7-.4-5.9-.4-11.8-.3-17.7l-6.1,6c0,2.2-.2,4.4-.2,6.7-.3,25.7,6,40.1,12.3,50.3-13.4-5.8-24.7-18.5-26.1-34.4l-5.3,5.3c1.1,16.6,15.5,29.7,25,35.2,10.3,6,21.5,9.8,32.9,12.8,15.2,4.4,38.9,11.2,57,16.4v10.8c0,0,0,0-.1,0-1.7-5.1-7.5-7.1-12.1-7.6l-21.5-2.4c1.5,15.5,11.7,26,27.5,28.1-6.6,20.6-14.1,51.1-14.1,72.1s2.1,23.6,4.2,29.3c2.4,6.9,3,15,1.5,23.9-.9,5.1-2.7,13.8-3.9,20.3-1.5,8.4-2.3,18.6,1.5,29.3,10.1,28.3,22.1,23.3,23.9,39.5l5.7,50.8-50.8-5.4-5.7,33.5h315.2l.6-12.3-79.2-9ZM336.5,345.8l17,4.8-15.8,32.3-1.2-37.1ZM379.2,390.1l-2.1,12.3-24.5-2.7,30.2-40.1,14.1,4.2c6.3,2.1,15.6,3.9,26.3,3.9h7.2c5.1,16.4,13.2,20.9,19.1,29.9l-70.3-7.5Z"/>
</svg>